<?xml version="1.0" standalone="no"?>
<!DOCTYPE svg PUBLIC "-//W3C//DTD SVG 20010904//EN"
 "http://www.w3.org/TR/2001/REC-SVG-20010904/DTD/svg10.dtd">
<svg version="1.0" xmlns="http://www.w3.org/2000/svg"
 width="300.000000pt" height="300.000000pt" viewBox="0 0 300.000000 300.000000"
 preserveAspectRatio="xMidYMid meet">
<metadata>
Created by potrace 1.11, written by Peter Selinger 2001-2013
</metadata>
<g transform="translate(0.000000,300.000000) scale(0.100000,-0.100000)"
fill="#000000" stroke="none">
<path d="M1425 2438 c-94 -34 -276 -195 -435 -386 -14 -16 -48 -56 -76 -88
-146 -167 -185 -215 -181 -221 4 -6 327 -9 397 -4 8 1 26 18 40 38 31 45 131
148 185 190 95 72 145 81 224 38 53 -29 190 -157 256 -240 22 -27 46 -56 53
-64 54 -56 336 -461 451 -646 10 -16 31 -49 45 -72 l26 -43 -1138 0 c-1126 0
-1139 0 -1157 -20 -10 -11 -15 -20 -10 -20 4 0 2 -6 -4 -14 -18 -21 -39 -139
-36 -198 3 -63 12 -97 32 -120 14 -15 118 -16 1399 -16 l1385 0 17 25 c30 47
34 144 11 240 -20 79 -56 137 -330 525 -164 233 -439 595 -462 610 -7 4 -9 8
-5 8 4 0 -5 12 -20 28 -15 15 -43 45 -61 67 -149 178 -335 334 -449 378 -48
19 -112 21 -157 5z"/>
</g>
</svg>
